<svg width="488" height="141" viewBox="0 0 488 141" fill="none" xmlns="http://www.w3.org/2000/svg">
<g clip-path="url(#clip0_274_671)">
<rect x="0.9375" y="0.713867" width="486.125" height="139.573" fill="#1E4175"/>
<path d="M34.5155 23.6656H44.1009V26.0428H34.5155V23.6656ZM46.0105 23.6656H55.596V26.0428H46.0105V23.6656ZM57.5056 23.6656H67.091V26.0428H57.5056V23.6656ZM69.0006 23.6656H78.586V26.0428H69.0006V23.6656ZM126.476 23.6656H136.061V26.0428H126.476V23.6656ZM22.6179 46.5314L30.6697 29.8144L33.0085 30.9072L24.9759 47.6242L22.6179 46.5314ZM46.0105 46.6656H55.596V49.0428H46.0105V46.6656ZM57.5056 46.6656H67.091V49.0428H57.5056V46.6656ZM69.0006 46.6656H78.586V49.0428H69.0006V46.6656ZM86.6878 47.49H83.8697V29.9486H86.6878V47.49ZM119.026 38.7672C119.026 39.8408 119.134 40.7994 119.352 41.6429C119.582 42.4864 119.952 43.3235 120.464 44.1543C120.988 44.9722 121.716 45.8924 122.649 46.9149L120.905 48.506C119.281 47.113 118.048 45.6432 117.205 44.0967C116.374 42.5375 115.958 40.761 115.958 38.7672C115.958 36.7735 116.374 35.0034 117.205 33.4569C118.048 31.8977 119.281 30.4215 120.905 29.0284L122.649 30.6196C121.345 32.051 120.413 33.3802 119.85 34.6072C119.301 35.8213 119.026 37.208 119.026 38.7672ZM126.476 46.6656H136.061V49.0428H126.476V46.6656ZM143.511 38.7672C143.511 37.208 143.23 35.8213 142.668 34.6072C142.118 33.3802 141.192 32.051 139.888 30.6196L141.632 29.0284C143.256 30.4215 144.483 31.8977 145.313 33.4569C146.157 35.0034 146.579 36.7735 146.579 38.7672C146.579 40.761 146.157 42.5375 145.313 44.0967C144.483 45.6432 143.256 47.113 141.632 48.506L139.888 46.9149C140.821 45.8924 141.543 44.9722 142.054 44.1543C142.578 43.3235 142.949 42.4864 143.166 41.6429C143.396 40.7994 143.511 39.8408 143.511 38.7672ZM172.456 46.6656H182.041V49.0428H172.456V46.6656ZM195.446 46.6656H205.031V49.0428H195.446V46.6656ZM206.941 46.6656H216.526V49.0428H206.941V46.6656ZM229.931 46.6656H239.517V49.0428H229.931V46.6656ZM241.426 46.6656H251.012V49.0428H241.426V46.6656ZM252.921 46.6656H262.507V49.0428H252.921V46.6656ZM24.9759 52.8144L33.0085 69.5314L30.6505 70.6242L22.6179 53.9072L24.9759 52.8144ZM34.5155 69.6656H44.1009V72.0428H34.5155V69.6656ZM46.0105 69.6656H55.596V72.0428H46.0105V69.6656ZM57.5056 69.6656H67.091V72.0428H57.5056V69.6656ZM82.4511 52.8144L90.4837 69.5314L88.1257 70.6242L80.0931 53.9072L82.4511 52.8144ZM121.173 70.49H118.355V52.9486H121.173V70.49ZM144.163 70.49H141.345V52.9486H144.163V70.49ZM167.153 70.49H164.335V52.9486H167.153V70.49ZM187.306 54.2523H190.162L189.817 59.6201H187.67L187.306 54.2523ZM195.446 69.6656H205.031V72.0428H195.446V69.6656ZM220.602 54.7507L221.772 52.4694L225.951 55.0191L225.127 56.5528L220.602 54.7507ZM241.426 69.6656H251.012V72.0428H241.426V69.6656ZM266.372 52.8144L274.404 69.5314L272.046 70.6242L264.014 53.9072L266.372 52.8144ZM34.5155 92.6656H44.1009V95.0428H34.5155V92.6656ZM46.0105 92.6656H55.596V95.0428H46.0105V92.6656ZM57.5056 92.6656H67.091V95.0428H57.5056V92.6656ZM74.541 84.7672C74.541 83.208 74.2598 81.8213 73.6975 80.6072C73.1479 79.3802 72.2213 78.051 70.9177 76.6196L72.6622 75.0284C74.2854 76.4215 75.5123 77.8977 76.3431 79.4569C77.1866 81.0034 77.6083 82.7735 77.6083 84.7672C77.6083 86.761 77.1866 88.5375 76.3431 90.0967C75.5123 91.6432 74.2854 93.113 72.6622 94.506L70.9177 92.9149C71.8507 91.8924 72.5728 90.9722 73.084 90.1543C73.608 89.3235 73.9786 88.4864 74.1959 87.6429C74.426 86.7994 74.541 85.8408 74.541 84.7672ZM98.1829 93.49H95.3648V75.9486H98.1829V93.49ZM121.173 93.49H118.355V75.9486H121.173V93.49ZM144.163 93.49H141.345V75.9486H144.163V93.49ZM167.153 93.49H164.335V75.9486H167.153V93.49ZM190.143 93.49H187.325V75.9486H190.143V93.49ZM213.133 93.49H210.315V75.9486H213.133V93.49ZM236.123 93.49H233.305V75.9486H236.123V93.49ZM259.113 93.49H256.295V75.9486H259.113V93.49ZM282.103 93.49H279.285V75.9486H282.103V93.49ZM29.2127 116.49H26.3945V98.9486H29.2127V116.49ZM34.5155 115.666H44.1009V118.043H34.5155V115.666ZM46.0105 115.666H55.596V118.043H46.0105V115.666ZM57.5056 115.666H67.091V118.043H57.5056V115.666ZM69.0006 115.666H78.586V118.043H69.0006V115.666ZM80.0931 115.531L88.1448 98.8144L90.4837 99.9072L82.4511 116.624L80.0931 115.531ZM121.173 116.49H118.355V98.9486H121.173V116.49ZM126.476 115.666H136.061V118.043H126.476V115.666ZM144.163 116.49H141.345V98.9486H144.163V116.49ZM167.153 116.49H164.335V98.9486H167.153V116.49ZM172.456 115.666H182.041V118.043H172.456V115.666ZM190.143 116.49H187.325V98.9486H190.143V116.49ZM213.133 116.49H210.315V98.9486H213.133V116.49ZM218.436 115.666H228.022V118.043H218.436V115.666ZM236.123 116.49H233.305V98.9486H236.123V116.49ZM259.113 116.49H256.295V98.9486H259.113V116.49ZM264.416 115.666H274.002V118.043H264.416V115.666ZM282.103 116.49H279.285V98.9486H282.103V116.49Z" fill="white"/>
<path d="M310.452 23.6656H320.037V26.0428H310.452V23.6656ZM402.412 23.6656H411.997V26.0428H402.412V23.6656ZM448.392 23.6656H457.977V26.0428H448.392V23.6656ZM305.149 47.49H302.331V29.9486H305.149V47.49ZM328.139 47.49H325.321V29.9486H328.139V47.49ZM397.109 47.49H394.291V29.9486H397.109V47.49ZM415.862 29.8144L423.895 46.5314L421.537 47.6242L413.504 30.9072L415.862 29.8144ZM443.089 47.49H440.271V29.9486H443.089V47.49ZM466.079 47.49H463.261V29.9486H466.079V47.49ZM305.149 70.49H302.331V52.9486H305.149V70.49ZM328.139 70.49H325.321V52.9486H328.139V70.49ZM397.109 70.49H394.291V52.9486H397.109V70.49ZM427.357 52.8144L435.39 69.5314L433.032 70.6242L424.999 53.9072L427.357 52.8144ZM443.089 70.49H440.271V52.9486H443.089V70.49ZM466.079 70.49H463.261V52.9486H466.079V70.49ZM305.149 93.49H302.331V75.9486H305.149V93.49ZM328.139 93.49H325.321V75.9486H328.139V93.49ZM333.442 92.6656H343.027V95.0428H333.442V92.6656ZM344.937 92.6656H354.522V95.0428H344.937V92.6656ZM356.432 92.6656H366.017V95.0428H356.432V92.6656ZM397.109 93.49H394.291V75.9486H397.109V93.49ZM420.099 93.49H417.281V75.9486H420.099V93.49ZM427.357 75.8144L435.39 92.5314L433.032 93.6242L424.999 76.9072L427.357 75.8144ZM466.079 93.49H463.261V75.9486H466.079V93.49ZM305.149 116.49H302.331V98.9486H305.149V116.49ZM310.452 115.666H320.037V118.043H310.452V115.666ZM321.947 115.666H331.532V118.043H321.947V115.666ZM333.442 115.666H343.027V118.043H333.442V115.666ZM344.937 115.666H354.522V118.043H344.937V115.666ZM356.432 115.666H366.017V118.043H356.432V115.666ZM374.119 116.49H371.301V98.9486H374.119V116.49ZM397.109 116.49H394.291V98.9486H397.109V116.49ZM402.412 115.666H411.997V118.043H402.412V115.666ZM420.099 116.49H417.281V98.9486H420.099V116.49ZM438.852 98.8144L446.885 115.531L444.527 116.624L436.494 99.9072L438.852 98.8144ZM448.392 115.666H457.977V118.043H448.392V115.666ZM466.079 116.49H463.261V98.9486H466.079V116.49Z" fill="#FFDF6C"/>
</g>
<defs>
<clipPath id="clip0_274_671">
<rect width="486.125" height="139.573" fill="white" transform="translate(0.9375 0.713867)"/>
</clipPath>
</defs>
</svg>
